<svg width="18" height="18" viewBox="0 0 18 18" fill="none" xmlns="http://www.w3.org/2000/svg">
<path d="M8 13H0V16C0 16.55 0.196 17.021 0.588 17.413C0.98 17.805 1.45067 18.0007 2 18H8V13ZM10 13V18H16C16.55 18 17.021 17.8043 17.413 17.413C17.805 17.0217 18.0007 16.5507 18 16V13H10ZM8 11V6H0V11H8ZM10 11H18V6H10V11ZM0 4H18V2C18 1.45 17.8043 0.979333 17.413 0.588C17.0217 0.196667 16.5507 0.000666667 16 0H2C1.45 0 0.979333 0.196 0.588 0.588C0.196667 0.98 0.000666667 1.45067 0 2V4Z" fill="white"/>
</svg>
